<svg xmlns="http://www.w3.org/2000/svg" viewBox="0 0 32 32" width="32" height="32">
  <rect width="32" height="32" rx="6" fill="#18181b"/>
  <path d="M16 28
    C10 28 6 23 6 18
    C6 14 8 11 10 9
    C10 12 11 13 12 13
    C11 10 12 6 16 4
    C16 7 17 9 19 10
    C20 8 20 6 20 5
    C23 8 26 12 26 18
    C26 23 22 28 16 28Z"
    fill="#f97316"/>
  <path d="M16 25
    C13 25 11 22 11 19
    C11 17 12 15 13 14
    C13 16 14 17 15 17
    C14.5 15 15 13 16 11
    C17 13 18 15 18 17
    C19 16 19 14 19 14
    C21 16 21 17 21 19
    C21 22 19 25 16 25Z"
    fill="#fbbf24"/>
</svg>
